#!OML:ASF X:\für Bonn\!DataBase\2005_08_11_Bastian_Final\c3d\Bastian.ASF
:FULLY-SPECIFIED
:DEGREES
121
root -2.18489 17.0414 6.83972 146.267 -15.556 -168.958
lowerback 37.929 -7.77183 4.33978
upperback 13.9816 -14.6378 6.35236
thorax -1.79826 -10.1473 9.40018
lowerneck -13.0819 -2.36829 -5.45958
upperneck -8.04339 -1.26705 8.228
head -0.210263 -0.0114357 3.61523
rclavicle 2.5842e-014 2.54444e-014
rhumerus -29.0385 33.4885 -85.5433
rradius 48.2106
rwrist -18.1004
rhand -36.0455 10.3214
rfingers 7.12502
rthumb -9.15373 -19.4599
lclavicle 2.5842e-014 2.54444e-014
lhumerus 48.8732 -21.2738 74.5799
lradius 113.128
lwrist -18.471
lhand -61.807 -9.78089
lfingers 7.12502
lthumb -33.8704 17.0316
rfemur -67.6923 -7.39805 32.7416
rtibia 131.565
rfoot 1.56171 -7.09085
rtoes -9.24211
lfemur 17.6137 -6.16141 -16.0473
ltibia 29.2278
lfoot -9.51566 -3.00623
ltoes 6.87666
122
root -2.18639 17.0707 6.84362 146.809 -15.2711 -169.107
lowerback 37.1263 -7.6777 4.32208
upperback 13.9393 -14.4362 6.28775
thorax -1.63948 -9.98006 9.16111
lowerneck -13.0407 -2.38795 -5.30353
upperneck -7.99596 -1.32858 8.11462
head -0.200477 -0.0511305 3.54179
rclavicle 7.55382e-015 -6.44062e-014
rhumerus -29.0887 33.2526 -85.4877
rradius 48.3457
rwrist -18.2806
rhand -36.1479 10.5655
rfingers 7.12502
rthumb -9.25252 -19.2114
lclavicle 7.55382e-015 -6.44062e-014
lhumerus 48.4173 -21.1658 74.4532
lradius 112.407
lwrist -18.8172
lhand -61.6628 -9.28058
lfingers 7.12502
lthumb -33.7334 17.562
rfemur -65.1891 -7.60469 32.032
rtibia 129.978
rfoot 2.10335 -7.35011
rtoes -10.0855
lfemur 17.4549 -5.99184 -16.0354
ltibia 28.5781
lfoot -9.23249 -2.80815
ltoes 7.23138
123
root -2.18738 17.1057 6.8471 147.339 -14.9557 -169.201
lowerback 36.3644 -7.57797 4.32001
upperback 13.8749 -14.2268 6.2758
thorax -1.50119 -9.81547 8.97744
lowerneck -13.0902 -2.39784 -5.16631
upperneck -7.90318 -1.37276 7.98886
head -0.161897 -0.079252 3.46883
rclavicle -1.70955e-014 -2.8625e-014
rhumerus -29.1125 33.0399 -85.3838
rradius 48.4765
rwrist -18.389
rhand -36.2206 10.8398
rfingers 7.12502
rthumb -9.32264 -18.9341
lclavicle -1.70955e-014 -2.8625e-014
lhumerus 47.9719 -21.0404 74.3823
lradius 111.608
lwrist -19.2786
lhand -61.5203 -8.63915
lfingers 7.12502
lthumb -33.5979 18.233
rfemur -62.6983 -7.67565 31.3751
rtibia 128.172
rfoot 2.68981 -7.62846
rtoes -11.1505
lfemur 17.6509 -5.80168 -15.9368
ltibia 27.1573
lfoot -8.54701 -2.55556
ltoes 7.58726
124
root -2.18808 17.1385 6.84807 147.894 -14.6574 -169.332
lowerback 35.5648 -7.46189 4.26724
upperback 13.8056 -14.0038 6.2488
thorax -1.34825 -9.64055 8.79472
lowerneck -13.1751 -2.41154 -4.96381
upperneck -7.73971 -1.43914 7.82644
head -0.0942487 -0.121494 3.36971
rclavicle -3.22031e-014 1.29608e-013
rhumerus -29.1705 32.8584 -85.3353
rradius 48.6231
rwrist -18.6221
rhand -36.3239 11.1128
rfingers 7.12502
rthumb -9.42233 -18.6566
lclavicle -3.22031e-014 1.29608e-013
lhumerus 47.4994 -21.0014 74.329
lradius 110.739
lwrist -19.8324
lhand -61.3812 -7.94259
lfingers 7.12502
lthumb -33.4657 18.9582
rfemur -60.2326 -7.66065 30.6833
rtibia 126.247
rfoot 3.24637 -7.89338
rtoes -11.967
lfemur 17.852 -5.57995 -15.8702
ltibia 25.6923
lfoot -7.83179 -2.32975
ltoes 7.90329
125
root -2.18987 17.2856 6.8638 148.456 -14.3681 -169.463
lowerback 34.747 -7.35695 4.22213
upperback 13.7182 -13.7829 6.21682
thorax -1.20378 -9.4617 8.60522
lowerneck -13.1931 -2.42018 -4.76619
upperneck -7.61794 -1.49817 7.66424
head -0.0523866 -0.1615 3.27227
rclavicle 1.02573e-013 -1.65389e-013
rhumerus -29.287 32.6786 -85.2979
rradius 48.8137
rwrist -18.8482
rhand -36.45 11.4104
rfingers 7.12502
rthumb -9.54396 -18.3535
lclavicle 1.02573e-013 -1.65389e-013
lhumerus 46.9864 -21.0383 74.2679
lradius 109.814
lwrist -20.3772
lhand -61.255 -7.38503
lfingers 7.12502
lthumb -33.3458 19.5416
rfemur -56.7542 -7.66927 29.9248
rtibia 123.471
rfoot 3.44101 -8.06629
rtoes -12.5943
lfemur 18.173 -5.33716 -15.778
ltibia 24.0241
lfoot -7.04958 -2.14503
ltoes 8.16479
126
root -2.19058 17.3085 6.85856 149.019 -14.0612 -169.599
lowerback 33.9004 -7.22696 4.16797
upperback 13.6318 -13.5333 6.1935
thorax -1.04077 -9.26953 8.41734
lowerneck -13.2291 -2.44754 -4.5385
upperneck -7.47488 -1.58889 7.47064
head 0.000202827 -0.218453 3.15719
rclavicle 9.18385e-014 -1.10524e-013
rhumerus -29.4184 32.4773 -85.2704
rradius 49.0106
rwrist -19.0644
rhand -36.6031 11.6435
rfingers 7.12502
rthumb -9.69172 -18.1135
lclavicle 9.18385e-014 -1.10524e-013
lhumerus 46.4458 -21.1868 74.1893
lradius 108.865
lwrist -20.8656
lhand -61.1223 -6.93418
lfingers 7.12502
lthumb -33.2196 20.0194
rfemur -54.4382 -7.42324 29.3064
rtibia 121.382
rfoot 3.90656 -8.46352
rtoes -12.894
lfemur 18.3717 -5.04879 -15.6861
ltibia 22.577
lfoot -6.35138 -1.98159
ltoes 8.46044
127
root -2.19093 17.3281 6.84991 149.587 -13.7591 -169.734
lowerback 33.0193 -7.10606 4.13496
upperback 13.5383 -13.2809 6.14792
thorax -0.873479 -9.06945 8.19294
lowerneck -13.233 -2.47786 -4.31592
upperneck -7.33034 -1.68464 7.30269
head 0.0481316 -0.278622 3.05228
rclavicle -8.15017e-014 3.57812e-014
rhumerus -29.6201 32.1953 -85.2925
rradius 49.2547
rwrist -19.2435
rhand -36.7475 11.8982
rfingers 7.12502
rthumb -9.83104 -17.8523
lclavicle -8.15017e-014 3.57812e-014
lhumerus 45.8616 -21.4497 74.0532
lradius 107.874
lwrist -21.3018
lhand -61.0217 -6.70783
lfingers 7.12502
lthumb -33.124 20.2661
rfemur -52.1511 -7.09535 28.7218
rtibia 119.229
rfoot 4.35178 -9.01031
rtoes -12.9874
lfemur 18.577 -4.77985 -15.6018
ltibia 21.1289
lfoot -5.65897 -1.82352
ltoes 9.0408
128
root -2.19093 17.3489 6.83568 150.171 -13.4542 -169.862
lowerback 32.0508 -6.97549 4.10235
upperback 13.4572 -13.0246 6.11277
thorax -0.649637 -8.86922 7.96392
lowerneck -13.2826 -2.51992 -4.0958
upperneck -7.15814 -1.79597 7.12382
head 0.112936 -0.345496 2.9439
rclavicle -1.31198e-014 -1.43125e-014
rhumerus -29.8069 31.9214 -85.2829
rradius 49.5183
rwrist -19.405
rhand -36.8481 12.0692
rfingers 7.12502
rthumb -9.92812 -17.6767
lclavicle -1.31198e-014 -1.43125e-014
lhumerus 45.2437 -21.7614 73.9179
lradius 106.879
lwrist -21.5981
lhand -60.9358 -6.8475
lfingers 7.12502
lthumb -33.0423 20.1438
rfemur -49.8418 -6.70029 28.199
rtibia 117.064
rfoot 4.694 -9.63978
rtoes -13.5362
lfemur 18.2922 -4.49188 -15.503
ltibia 20.7294
lfoot -5.52837 -1.80958
ltoes 9.18788
129
root -2.19087 17.3681 6.81752 150.73 -13.1358 -169.979
lowerback 31.1006 -6.85489 4.10357
upperback 13.3393 -12.7536 6.06628
thorax -0.471489 -8.65288 7.71376
lowerneck -13.2431 -2.57233 -3.90625
upperneck -6.97985 -1.92574 6.96356
head 0.166069 -0.424896 2.84723
rclavicle 9.89948e-014 -1.05753e-013
rhumerus -30.0697 31.5974 -85.3222
rradius 49.7941
rwrist -19.5847
rhand -36.9352 12.2685
rfingers 7.12502
rthumb -10.0122 -17.4733
lclavicle 9.89948e-014 -1.05753e-013
lhumerus 44.5758 -22.1657 73.8032
lradius 105.817
lwrist -21.807
lhand -60.8824 -7.13181
lfingers 7.12502
lthumb -32.9915 19.8702
rfemur -47.5564 -6.23953 27.7335
rtibia 114.822
rfoot 5.00564 -10.3004
rtoes -13.9195
lfemur 18.0001 -4.19645 -15.3855
ltibia 20.4195
lfoot -5.45898 -1.79023
ltoes 9.71449
130
root -2.18992 17.3844 6.79507 151.302 -12.8507 -170.139
lowerback 29.9289 -6.7069 3.97561
upperback 13.2993 -12.4439 5.78073
thorax -0.18429 -8.41761 7.73082
lowerneck -13.0918 -2.6253 -3.76622
upperneck -6.78286 -2.06202 6.81663
head 0.207375 -0.511995 2.76451
rclavicle 7.67309e-014 -2.3059e-014
rhumerus -30.4822 31.2708 -85.3995
rradius 50.1147
rwrist -19.7163
rhand -37.0489 12.4487
rfingers 7.12502
rthumb -10.1219 -17.2879
lclavicle 7.67309e-014 -2.3059e-014
lhumerus 43.7362 -22.6576 73.7484
lradius 104.773
lwrist -21.9952
lhand -60.8708 -7.57188
lfingers 7.12502
lthumb -32.9804 19.4325
rfemur -45.3156 -5.7458 27.2617
rtibia 112.521
rfoot 5.16729 -10.9492
rtoes -14.261
lfemur 17.6795 -3.95569 -15.3577
ltibia 20.1962
lfoot -5.44425 -1.73476
ltoes 9.92765
131
root -2.18797 17.3959 6.76931 151.872 -12.5398 -170.254
lowerback 28.9884 -6.60162 3.99383
upperback 13.0766 -12.1522 5.75462
thorax -0.0887256 -8.17577 7.46847
lowerneck -12.8802 -2.69844 -3.66291
upperneck -6.60287 -2.22254 6.67853
head 0.234662 -0.612278 2.69096
rclavicle 7.31528e-014 -1.27222e-013
rhumerus -30.9226 30.8626 -85.495
rradius 50.4251
rwrist -19.7638
rhand -37.1389 12.5597
rfingers 7.12502
rthumb -10.2086 -17.1726
lclavicle 7.31528e-014 -1.27222e-013
lhumerus 42.8104 -23.2295 73.6936
lradius 103.759
lwrist -22.1216
lhand -60.86 -7.98171
lfingers 7.12502
lthumb -32.9702 19.0248
rfemur -43.0955 -5.19759 26.8971
rtibia 110.131
rfoot 5.24935 -11.6254
rtoes -14.7929
lfemur 17.3016 -3.72129 -15.272
ltibia 20.0847
lfoot -5.50647 -1.68967
ltoes 10.1734
132
root -2.18595 17.4042 6.74154 152.42 -12.2379 -170.396
lowerback 28.073 -6.49404 4.01074
upperback 12.8422 -11.8516 5.70306
thorax -0.0157026 -7.92658 7.18814
lowerneck -12.6394 -2.78079 -3.60146
upperneck -6.4152 -2.39108 6.58506
head 0.261154 -0.715981 2.64041
rclavicle 1.4233e-013 -1.44715e-013
rhumerus -31.399 30.4488 -85.6273
rradius 50.7594
rwrist -19.8057
rhand -37.1885 12.6604
rfingers 7.12502
rthumb -10.2565 -17.0696
lclavicle 1.4233e-013 -1.44715e-013
lhumerus 41.8817 -23.8468 73.6228
lradius 102.712
lwrist -22.1571
lhand -60.844 -8.34264
lfingers 7.12502
lthumb -32.955 18.6671
rfemur -40.9141 -4.63575 26.537
rtibia 107.72
rfoot 5.31917 -12.2982
rtoes -15.2453
lfemur 16.8991 -3.48218 -15.228
ltibia 20.098
lfoot -5.62594 -1.65103
ltoes 10.3483
